<?xml version="1.0" encoding="UTF-8" standalone="no"?>
<svg
   aria-hidden="true"
   focusable="false"
   data-prefix="fas"
   data-icon="paper-plane"
   class="svg-inline--fa fa-paper-plane fa-w-16"
   role="img"
   viewBox="0 0 48 48"
   version="1.1"
   id="svg4"
   sodipodi:docname="spiral.svg"
   width="48"
   height="48"
   inkscape:export-filename="/home/emil/Downloads/spiral.png"
   inkscape:export-xdpi="96"
   inkscape:export-ydpi="96"
   inkscape:version="1.1.1 (3bf5ae0d25, 2021-09-20)"
   xmlns:inkscape="http://www.inkscape.org/namespaces/inkscape"
   xmlns:sodipodi="http://sodipodi.sourceforge.net/DTD/sodipodi-0.dtd"
   xmlns="http://www.w3.org/2000/svg"
   xmlns:svg="http://www.w3.org/2000/svg">
  <defs
     id="defs8" />
  <sodipodi:namedview
     id="namedview6"
     pagecolor="#ffffff"
     bordercolor="#666666"
     borderopacity="1.0"
     inkscape:pageshadow="2"
     inkscape:pageopacity="0.0"
     inkscape:pagecheckerboard="0"
     showgrid="false"
     inkscape:zoom="8.3836518"
     inkscape:cx="8.2303036"
     inkscape:cy="22.722795"
     inkscape:window-width="1318"
     inkscape:window-height="720"
     inkscape:window-x="48"
     inkscape:window-y="48"
     inkscape:window-maximized="0"
     inkscape:current-layer="svg4" />
  <g
     id="g4"
     transform="matrix(0.04084576,0.04752773,-0.04752773,0.04084576,24.427358,5.8287961)"
     style="fill:#ffffff"
     inkscape:export-filename="/home/emil/Downloads/spiral.png"
     inkscape:export-xdpi="147.5"
     inkscape:export-ydpi="147.5">
    <path
       d="m 246.92,187.032 c -6.793,-0.003 -12.844,-4.331 -15.057,-10.771 -2.08,-6.06 -7.779,-10.128 -14.188,-10.128 -0.002,0 -0.004,0 -0.006,0 l -9.392,0.004 c -4.642,0.002 -9.021,2.152 -11.86,5.824 -2.839,3.672 -3.818,8.451 -2.652,12.944 6.283,24.208 28.137,41.12 53.151,41.127 35.137,-0.009 63.725,-28.604 63.73,-63.748 -0.006,-41.243 -33.562,-74.797 -74.807,-74.797 -48.867,0.002 -88.625,39.761 -88.625,88.631 0.007,58.39 47.517,105.899 105.912,105.905 70.303,-0.006 127.502,-57.207 127.508,-127.51 0,-41.271 -16.072,-80.073 -45.256,-109.256 C 306.198,16.071 267.399,-0.001 226.125,0 122.316,0 37.86,84.455 37.86,188.264 c 0,61.557 23.972,119.429 67.499,162.956 40.768,40.77 94.847,64.655 152.276,67.262 0.228,0.011 0.453,0.016 0.681,0.016 3.853,0 7.565,-1.482 10.362,-4.155 2.961,-2.83 4.637,-6.748 4.637,-10.845 v -9.013 c 0,-8.005 -6.285,-14.601 -14.281,-14.982 C 156.88,374.608 76.86,290.607 76.86,188.265 76.86,105.96 143.82,39.001 226.126,39.001 256.98,39 285.985,51.016 307.804,72.833 c 21.818,21.818 33.834,50.827 33.834,81.68 -0.002,48.801 -39.707,88.506 -88.506,88.512 -36.893,-0.006 -66.908,-30.021 -66.914,-66.909 0,-27.363 22.263,-49.626 49.626,-49.628 19.738,0 35.801,16.061 35.805,35.797 -0.002,13.643 -11.1,24.744 -24.729,24.747 z"
       id="path2-3"
       style="fill:#ffffff" />
  </g>
</svg>
