<?xml version="1.0" encoding="UTF-8" standalone="no"?>
<svg
   aria-hidden="true"
   focusable="false"
   data-prefix="fas"
   data-icon="pen"
   class="svg-inline--fa fa-pen fa-w-16"
   role="img"
   viewBox="0 0 240 239.98979"
   version="1.1"
   id="svg954"
   sodipodi:docname="brave-reversed.svg"
   width="240"
   height="239.98979"
   inkscape:version="1.1.1 (3bf5ae0d25, 2021-09-20)"
   xmlns:inkscape="http://www.inkscape.org/namespaces/inkscape"
   xmlns:sodipodi="http://sodipodi.sourceforge.net/DTD/sodipodi-0.dtd"
   xmlns="http://www.w3.org/2000/svg"
   xmlns:svg="http://www.w3.org/2000/svg">
  <defs
     id="defs958" />
  <sodipodi:namedview
     id="namedview956"
     pagecolor="#ffffff"
     bordercolor="#666666"
     borderopacity="1.0"
     inkscape:pageshadow="2"
     inkscape:pageopacity="0.0"
     inkscape:pagecheckerboard="0"
     showgrid="false"
     inkscape:zoom="0.99804688"
     inkscape:cx="30.058708"
     inkscape:cy="256"
     inkscape:window-width="1318"
     inkscape:window-height="720"
     inkscape:window-x="48"
     inkscape:window-y="48"
     inkscape:window-maximized="0"
     inkscape:current-layer="svg954">
    <inkscape:grid
       type="xygrid"
       id="grid1292"
       originx="0.010860353"
       originy="-0.0074999999" />
  </sodipodi:namedview>
  <path
     d="m 154.67228,-0.00510406 c 1.39521,0 2.72299,0.61062 3.64491,1.67621996 L 176.1651,22.300796 c 0.22184,-0.0422 0.45146,-0.0849 0.68906,-0.1271 4.29883,-0.76655 8.7295,-1.04681 12.98259,-0.5391 5.4341,0.64872 10.08224,2.54461 13.5381,6.06549 3.60855,3.67649 7.1991,7.42718 10.60788,11.05449 1.1933,1.26975 2.27907,2.43384 3.23666,3.46747 0.33593,0.36237 0.63186,0.68294 0.88552,0.95839 1.60407,1.74976 1.97315,3.79119 1.26037,5.57368 l -4.60543,11.51692 6.13619,17.86189 c 0.31974,0.9306 0.35842,1.93722 0.11132,2.89044 -0.0438,0.16855 -0.0438,0.16855 -0.25106,0.96948 -0.28382,1.09615 -0.28382,1.09615 -0.71002,2.7406 -0.76465,2.95178 -1.61669,6.24166 -2.53426,9.78555 -2.62171,10.125434 -5.24337,20.257924 -7.69024,29.724724 -6.04019,23.36965 -10.00057,38.75628 -10.95387,42.59062 -5.19011,20.87284 -9.30764,28.11876 -22.61782,37.66143 -11.66093,8.36023 -35.99366,25.13583 -40.672,28.11486 -0.44712,0.2846 -0.94165,0.61642 -1.59656,1.06836 -0.25461,0.17566 -1.49062,1.03564 -1.84513,1.27994 -2.27429,1.56708 -3.89683,2.57133 -5.64545,3.39989 -2.21745,1.05072 -4.33921,1.63608 -6.49102,1.63608 -2.15184,0 -4.2736,-0.58536 -6.49105,-1.63608 -1.74858,-0.82856 -3.37116,-1.83281 -5.64545,-3.39989 -0.35448,-0.24434 -1.59045,-1.1042 -1.84509,-1.27994 -0.65492,-0.45194 -1.14944,-0.78368 -1.59653,-1.06836 -4.678367,-2.97903 -29.011107,-19.75463 -40.672027,-28.11486 -13.31018,-9.54267 -17.42771,-16.78859 -22.61783,-37.66139 -0.95345,-3.8343 -4.91387,-19.22089 -10.90973,-42.41911 -2.49096,-9.63756 -5.11263,-19.77025 -7.73433,-29.895914 -0.91761,-3.54402 -1.76966,-6.83397 -2.53431,-9.78584 -0.42604,-1.64452 -0.42604,-1.64452 -0.71001,-2.74067 -0.20764,-0.80097 -0.20764,-0.80097 -0.25106,-0.96948 -0.2471,-0.95322 -0.20803,-1.95984 0.11132,-2.89044 l 6.13623,-17.86189 -4.60543,-11.51692 c -0.71278,-1.78249 -0.34382,-3.82392 0.94583,-5.23156 0.56815,-0.61757 0.86421,-0.93806 1.20005,-1.30055 0.9576,-1.03359 2.04333,-2.19768 3.23663,-3.46743 3.40877,-3.62731 6.99932,-7.378 10.60792,-11.05449 3.45586,-3.52088 8.104,-5.41677 13.5381,-6.06549 4.25304,-0.50771 8.68372,-0.22737 12.98259,0.5391 0.23763,0.0422 0.46737,0.0849 0.68906,0.1271 L 81.682683,1.6711159 c 0.92192,-1.06559996 2.24974,-1.67621996 3.64495,-1.67621996 z M 152.47757,9.8773959 H 87.522343 L 69.228573,31.022456 c -1.23052,1.42228 -3.152,2.0033 -4.94613,1.49555 -0.0935,-0.0276 -0.32684,-0.0876 -0.68337,-0.17172 -0.62562,-0.14802 -1.3414,-0.29802 -2.12978,-0.43843 -3.44773,-0.61481 -6.98657,-0.83863 -10.17449,-0.45806 -3.44027,0.41069 -6.08613,1.48987 -7.79792,3.23387 -3.55467,3.62153 -7.09722,7.32214 -10.46036,10.90085 -0.79434,0.84525 -1.54,1.64263 -2.23052,2.38438 l 4.12171,10.30732 c 0.44578,1.11479 0.47642,2.35676 0.0861,3.49286 l -6.25133,18.19714 c 0.16973,0.65475 0.23171,0.89365 0.58247,2.24839 0.76473,2.95222 1.6169,6.24257 2.53459,9.78698 2.62205,10.126924 5.24407,20.260954 7.69134,29.729414 6.05546,23.42898 10.01142,38.79825 10.97652,42.67925 4.66942,18.7787 7.642,24.00979 18.79636,32.00686 11.5284,8.26526 35.732527,24.9522 40.230077,27.81604 0.56593,0.36039 1.15062,0.75261 1.89557,1.26664 0.27632,0.19066 1.50854,1.04803 1.83969,1.27619 1.8773,1.29356 3.13585,2.0725 4.29978,2.62403 1.03643,0.4911 1.8383,0.71235 2.39105,0.71235 0.55276,0 1.35467,-0.22106 2.3911,-0.71235 1.16389,-0.55153 2.42248,-1.33047 4.29978,-2.62403 0.33119,-0.22816 1.56348,-1.08557 1.83968,-1.27619 0.74496,-0.51403 1.3296,-0.90629 1.89554,-1.26664 4.49755,-2.86384 28.70167,-19.55078 40.23012,-27.81604 11.15436,-7.99707 14.12694,-13.22816 18.79632,-32.00671 0.9649,-3.88108 4.92078,-19.25026 10.93227,-42.50875 2.4916,-9.63993 5.11361,-19.77377 7.73563,-29.900464 0.91769,-3.54432 1.76986,-6.8346 2.53459,-9.78674 0.35092,-1.35462 0.41285,-1.59356 0.58247,-2.24827 l -6.25137,-18.1971 c -0.3904,-1.1361 -0.35961,-2.37807 0.0861,-3.49286 l 4.12176,-10.30732 c -0.69056,-0.74175 -1.43618,-1.53913 -2.23052,-2.38438 -3.36314,-3.57871 -6.90573,-7.27932 -10.46036,-10.90085 -1.71179,-1.744 -4.35765,-2.82318 -7.79796,-3.23387 -3.18792,-0.38053 -6.72676,-0.15671 -10.17449,0.45806 -0.78838,0.14052 -1.50412,0.29053 -2.12974,0.43843 -0.35645,0.0845 -0.58986,0.14527 -0.68338,0.17172 -1.79413,0.50775 -3.7156,-0.0734 -4.94612,-1.49555 z M 119.99985,148.142 c 1.31997,0 9.77711,3.04187 16.56375,6.61947 6.78613,3.57812 11.70431,6.10824 13.27659,7.1106 1.57182,1.00284 0.61303,2.89321 -0.81865,3.92446 -1.43215,1.0313 -20.67579,16.2131 -22.54326,17.89102 -1.86799,1.67843 -4.61237,4.44994 -6.47843,4.44994 -1.86605,0 -4.61095,-2.77151 -6.47842,-4.44994 -1.86799,-1.67792 -21.111107,-16.85972 -22.543297,-17.89102 -1.43216,-1.03125 -2.39047,-2.92162 -0.81865,-3.92446 1.57228,-1.00236 6.49046,-3.53248 13.277097,-7.1106 6.78565,-3.5776 15.24331,-6.61947 16.56327,-6.61947 z m 0.0276,-108.132944 c 0.34539,0.004 4.10166,0.10737 9.60519,1.97642 5.77872,1.96249 12.03901,4.4156 14.92838,4.4156 2.88934,0 24.31876,-4.17031 24.31876,-4.17031 0,0 25.39557,31.27715 25.39557,37.96187 0,6.68472 -3.19466,8.449 -6.40666,11.92409 -3.21199,3.47505 -17.24033,18.651964 -19.04184,20.600714 -1.80155,1.94923 -5.55193,4.90425 -3.34589,10.22309 2.206,5.31883 5.46039,12.08696 1.84146,18.95176 -3.61941,6.86476 -9.81946,11.4467 -13.79236,10.68915 -3.97286,-0.75802 -13.30308,-5.72554 -16.73419,-7.99466 -3.43112,-2.26912 -14.30572,-11.40647 -14.30572,-14.90264 0,-3.4957 11.24104,-9.77269 13.31752,-11.19896 2.07748,-1.42572 11.54977,-6.94572 11.74382,-9.11233 0.19342,-2.16704 0.12,-2.80241 -2.67554,-8.15607 -2.79547,-5.354174 -7.8297,-12.498604 -6.99179,-17.252254 0.83792,-4.75314 8.95704,-7.22488 14.75118,-9.45429 5.79316,-2.22889 16.9485,-6.43891 18.34166,-7.09339 1.3941,-0.65499 1.0339,-1.27856 -3.18792,-1.68629 -4.22087,-0.40768 -16.20019,-2.02773 -21.60086,-0.49405 -5.40071,1.53368 -14.62739,3.8671 -15.37479,5.10445 -0.74736,1.23736 -1.40666,1.27904 -0.63904,5.54748 0.76713,4.2684 4.71883,24.749894 5.10212,28.387854 0.38369,3.63796 1.13409,6.04299 -2.71596,6.93984 -3.85057,0.89685 -10.33188,2.45409 -12.55912,2.45409 -2.2272,0 -8.70902,-1.55724 -12.55907,-2.45409 -3.85057,-0.89685 -3.10028,-3.30188 -2.71648,-6.93984 0.38369,-3.63796 4.33499,-24.119454 5.1026,-28.387854 0.76714,-4.26844 0.10777,-4.31012 -0.63904,-5.54748 -0.74736,-1.23735 -9.974557,-3.57077 -15.375227,-5.10445 -5.40071,-1.53368 -17.37951,0.0865 -21.60086,0.49405 -4.22138,0.40773 -4.58158,1.0313 -3.18795,1.68629 1.39362,0.65448 12.54897,4.8645 18.34216,7.09339 5.79364,2.22941 13.913227,4.70115 14.751137,9.45429 0.83792,4.75365 -4.196787,11.89808 -6.991777,17.252254 -2.79543,5.35366 -2.8696,5.98903 -2.67555,8.15607 0.19343,2.16661 9.666387,7.68661 11.743347,9.11233 2.07696,1.42627 13.31752,7.70326 13.31752,11.19896 0,3.49617 -10.87408,12.63352 -14.3052,14.90264 -3.431107,2.26912 -12.761337,7.23664 -16.734227,7.99466 -3.97286,0.75755 -10.17295,-3.82439 -13.79236,-10.68915 -3.61893,-6.8648 -0.36474,-13.63293 1.84098,-18.95176 2.20605,-5.31884 -1.54386,-8.27386 -3.34585,-10.22309 -1.80104,-1.94875 -15.82984,-17.125664 -19.04188,-20.600714 -3.21199,-3.47509 -6.40619,-5.23937 -6.40619,-11.92409 0,-6.68472 25.39557,-37.96187 25.39557,-37.96187 0,0 21.42943,4.17031 24.3188,4.17031 2.88934,0 9.149627,-2.45311 14.928337,-4.4156 5.77875,-1.96249 9.63121,-1.97674 9.63121,-1.97674 z"
     id="Mask"
     style="fill:#ffffff;fill-rule:evenodd;stroke:none;stroke-width:3.9474" />
</svg>
