<?xml version="1.0" encoding="UTF-8" standalone="no"?>
<svg
   aria-hidden="true"
   focusable="false"
   data-prefix="fas"
   data-icon="pen"
   class="svg-inline--fa fa-pen fa-w-16"
   role="img"
   viewBox="0 0 240 239.98979"
   version="1.1"
   id="svg954"
   sodipodi:docname="brave.svg"
   width="240"
   height="239.98979"
   inkscape:version="1.1.1 (3bf5ae0d25, 2021-09-20)"
   xmlns:inkscape="http://www.inkscape.org/namespaces/inkscape"
   xmlns:sodipodi="http://sodipodi.sourceforge.net/DTD/sodipodi-0.dtd"
   xmlns="http://www.w3.org/2000/svg"
   xmlns:svg="http://www.w3.org/2000/svg">
  <defs
     id="defs958" />
  <sodipodi:namedview
     id="namedview956"
     pagecolor="#ffffff"
     bordercolor="#666666"
     borderopacity="1.0"
     inkscape:pageshadow="2"
     inkscape:pageopacity="0.0"
     inkscape:pagecheckerboard="0"
     showgrid="false"
     inkscape:zoom="0.99804688"
     inkscape:cx="30.058708"
     inkscape:cy="256"
     inkscape:window-width="1318"
     inkscape:window-height="720"
     inkscape:window-x="48"
     inkscape:window-y="48"
     inkscape:window-maximized="0"
     inkscape:current-layer="svg954">
    <inkscape:grid
       type="xygrid"
       id="grid1292"
       originx="0.010860353"
       originy="-0.0074999999" />
  </sodipodi:namedview>
  <path
     id="path24"
     style="fill:#ffffff;fill-opacity:1;fill-rule:nonzero;stroke:none;stroke-width:0.4117"
     d="M 83.836519,-0.00510161 63.247502,23.792262 c 0,0 -18.086247,-5.116531 -26.625815,3.58227 -8.53796,8.697156 -15.565394,16.379531 -15.565394,16.379531 L 26.580475,57.564503 19.5486,78.03289 c 0,0 20.681899,79.80494 23.10385,89.55071 4.773125,19.19096 8.035879,26.60756 21.596154,36.32927 13.562233,9.72155 38.173846,26.60893 42.191226,29.17078 4.01735,2.55706 9.04271,6.91124 13.56319,6.91124 4.51923,0 9.54143,-4.35418 13.55714,-6.91124 4.01902,-2.56185 28.6294,-19.44923 42.19121,-29.17078 13.56057,-9.72171 16.82333,-17.13831 21.59617,-36.32927 2.42204,-9.74577 23.10386,-89.55071 23.10386,-89.55071 l -7.03187,-20.468387 5.52419,-13.81044 c 0,0 -7.03362,-7.682375 -15.57144,-16.379531 -8.5395,-8.698801 -26.61979,-3.58227 -26.61979,-3.58227 L 156.16346,-0.00510161 H 120.00302 Z M 119.88842,36.577464 h 0.21709 c 0.67561,0.01776 4.48699,0.203832 9.93871,2.056488 6.02728,2.045736 12.55942,4.607496 15.57141,4.607496 3.01366,0 25.35937,-4.354201 25.35937,-4.354201 0,0 26.4871,32.628288 26.4871,39.597948 0,6.971728 -3.32769,8.81041 -6.67606,12.435418 -3.35164,3.62461 -17.98716,19.448997 -19.86532,21.481557 -1.87859,2.03421 -5.79157,5.11596 -3.49181,10.66237 2.30306,5.54684 5.69827,12.60938 1.92381,19.76883 -3.77447,7.16152 -10.24084,11.93886 -14.38337,11.15087 -4.14457,-0.79295 -13.87453,-5.97326 -17.45303,-8.34054 -3.57808,-2.36892 -14.9201,-11.89524 -14.9201,-15.54127 0,-3.64723 11.72289,-10.19368 13.88884,-11.68156 2.16637,-1.48748 12.04593,-7.24466 12.2485,-9.50448 0.20254,-2.2594 0.12343,-2.91948 -2.79226,-8.50338 -2.91401,-5.583457 -8.1644,-13.039303 -7.29118,-17.995767 0.87322,-4.958097 9.34235,-7.538301 15.38446,-9.860288 6.04213,-2.32692 17.67587,-6.716315 19.12958,-7.399739 1.45207,-0.681769 1.07853,-1.332133 -3.32295,-1.754941 -4.40354,-0.426107 -16.89721,-2.11728 -22.53093,-0.518651 -5.63205,1.598628 -15.25603,4.034064 -16.03579,5.325155 -0.78017,1.289857 -1.47017,1.330561 -0.66941,5.783507 0.79911,4.4517 4.92459,25.817197 5.32517,29.611004 0.40017,3.79382 1.18125,6.30111 -2.83448,7.23692 -4.01571,0.9362 -10.77038,2.55702 -13.09277,2.55702 -2.32365,0 -9.08473,-1.62082 -13.09882,-2.55702 -4.01738,-0.93581 -3.24109,-3.4431 -2.8405,-7.23692 0.40061,-3.793807 4.52277,-25.159304 5.32518,-29.611004 0.80075,-4.452946 0.11027,-4.49365 -0.66943,-5.783507 -0.78016,-1.291091 -10.40374,-3.726527 -16.0358,-5.325155 -5.631631,-1.598629 -18.12176,0.09252 -22.524888,0.518651 -4.401891,0.422808 -4.777071,1.073172 -3.322946,1.754941 1.453705,0.683424 13.089515,5.072819 19.12958,7.399739 6.042104,2.321987 14.509604,4.902191 15.384464,9.860288 0.87322,4.956464 -4.38156,12.41231 -7.29721,17.995767 -2.914017,5.5839 -2.988774,6.24398 -2.786214,8.50338 0.201325,2.25982 10.082514,8.017 12.248464,9.50448 2.16637,1.48788 13.88886,8.03433 13.88886,11.68156 0,3.64603 -11.34161,13.17235 -14.92011,15.54127 -3.57808,2.36728 -13.3105,7.54759 -17.453036,8.34054 -4.144574,0.78799 -10.608895,-3.98935 -14.383356,-11.15087 -3.77447,-7.15945 -0.381983,-14.22199 1.917784,-19.76883 2.302633,-5.54641 -1.609263,-8.62816 -3.485789,-10.66237 C 67.199,110.36961 52.563788,94.545223 49.2139,90.920613 c -3.349876,-3.625008 -6.682087,-5.46369 -6.682087,-12.435418 0,-6.96966 26.487108,-39.597948 26.487108,-39.597948 0,0 22.351342,4.354201 25.365399,4.354201 3.01529,0 9.54208,-2.56176 15.57142,-4.607496 5.45173,-1.852644 9.25707,-2.038789 9.93267,-2.056488 z m 0.10854,112.775146 c 1.37837,0 10.2006,3.16796 17.27814,6.8992 7.07796,3.73577 12.20807,6.37252 13.84664,7.41782 1.6402,1.04531 0.63604,3.02034 -0.85638,4.09489 -1.49405,1.0774 -21.56016,16.91109 -23.5079,18.65916 -1.949,1.75302 -4.8111,4.64368 -6.7605,4.64368 -1.94404,0 -4.80505,-2.89066 -6.75445,-4.64368 -1.94734,-1.74807 -22.019874,-17.58176 -23.513939,-18.65916 -1.492416,-1.07455 -2.490963,-3.04958 -0.85033,-4.09489 1.638562,-1.0453 6.769079,-3.68205 13.846609,-7.41782 7.07961,-3.73124 15.89745,-6.8992 17.27211,-6.8992 z" />
</svg>
